<?xml version="1.0" standalone="no"?>
<!DOCTYPE svg PUBLIC "-//W3C//DTD SVG 20010904//EN"
 "http://www.w3.org/TR/2001/REC-SVG-20010904/DTD/svg10.dtd">
<svg version="1.0" xmlns="http://www.w3.org/2000/svg"
 width="1024.000000pt" height="1024.000000pt" viewBox="0 0 1024.000000 1024.000000"
 preserveAspectRatio="xMidYMid meet">
<metadata>
Created by potrace 1.16, written by Peter Selinger 2001-2019
</metadata>
<g transform="translate(0.000000,1024.000000) scale(0.100000,-0.100000)"
fill="#000000" stroke="none">
<path d="M1375 6429 c-101 -10 -165 -37 -251 -105 -23 -18 -45 -30 -49 -26 -5
4 -5 2 -2 -4 4 -7 -9 -37 -27 -69 -19 -31 -42 -86 -50 -122 -8 -36 -21 -70
-28 -74 -10 -7 -10 -9 0 -9 17 0 17 -457 -1 -479 -9 -11 -9 -13 0 -8 17 11 18
-214 0 -225 -9 -6 -9 -8 1 -8 7 0 12 -13 11 -32 -1 -31 -1 -32 -9 -8 -7 22 -8
20 -7 -12 0 -20 5 -34 9 -32 4 3 8 -29 8 -70 0 -44 -4 -76 -10 -76 -5 0 -10
-5 -10 -11 0 -5 5 -7 11 -4 7 5 9 -10 7 -44 -2 -28 -6 -51 -10 -51 -5 0 -8
-16 -8 -35 0 -21 5 -35 13 -35 8 0 7 -4 -3 -10 -10 -6 -11 -10 -2 -10 6 0 12
-7 12 -15 0 -8 -4 -15 -9 -15 -5 0 -9 -18 -9 -40 -1 -29 3 -38 11 -33 8 4 8 1
-1 -9 -10 -13 -10 -17 0 -22 10 -5 10 -7 1 -12 -9 -4 -13 -39 -13 -125 0 -85
3 -118 11 -113 6 3 9 22 7 40 -2 19 -1 31 3 26 5 -4 9 -55 10 -115 1 -98 3
-106 18 -95 9 7 180 166 381 353 201 187 462 430 580 540 118 109 268 248 333
308 l118 110 -128 54 c-129 54 -162 73 -130 73 25 0 502 133 760 211 55 17
101 29 103 26 2 -2 -29 -127 -70 -278 -41 -151 -93 -346 -116 -434 -23 -88
-46 -166 -50 -174 -6 -11 -20 8 -49 65 -22 43 -54 103 -70 132 l-29 53 -274
-313 c-150 -172 -388 -446 -528 -608 -139 -162 -287 -332 -328 -377 l-74 -83
238 -1 c1141 -6 1468 -3 1458 12 -6 10 75 31 88 23 6 -4 8 -3 5 3 -9 14 61 56
75 47 6 -4 8 -3 5 3 -7 11 76 96 86 88 4 -3 5 -2 3 1 -2 3 11 36 29 72 61 124
60 102 60 867 0 385 -3 764 -6 842 -6 132 -9 147 -39 212 -18 39 -42 78 -53
88 -20 17 -20 17 -14 0 4 -11 3 -16 -4 -12 -5 4 -7 15 -4 25 10 31 -73 92
-189 138 -37 15 -131 18 -891 22 -467 3 -877 2 -910 -1z"/>
<path d="M4285 6055 c-7 -11 -16 -30 -20 -43 -3 -12 -11 -19 -17 -16 -7 4 -8
2 -4 -5 7 -11 -7 -51 -107 -311 -25 -63 -79 -206 -122 -317 -43 -111 -82 -200
-86 -197 -5 3 -6 -1 -3 -9 5 -15 -63 -197 -75 -197 -11 0 -12 -68 -1 -75 6 -3
10 4 10 18 l0 23 131 1 c98 1 134 4 140 14 4 7 25 60 45 117 25 70 40 99 45
90 7 -10 9 -9 9 5 0 16 16 17 194 17 215 0 233 -5 222 -59 -3 -14 -1 -33 4
-41 8 -11 9 -7 5 15 -3 17 10 -8 29 -55 20 -47 35 -91 36 -97 0 -14 26 -16
120 -13 30 2 80 3 111 4 59 3 79 10 79 29 0 7 -4 6 -10 -3 -7 -10 -10 -11 -11
-2 -2 18 -4 23 -29 77 -13 28 -23 64 -23 80 0 17 -2 24 -5 16 -2 -7 -18 20
-34 60 -16 40 -26 79 -24 86 3 8 2 12 -3 9 -12 -8 -52 108 -45 130 4 14 3 15
-3 6 -7 -10 -15 0 -28 35 -10 26 -18 53 -18 60 0 7 -3 13 -7 13 -10 0 -30 72
-23 83 3 6 1 7 -4 4 -10 -6 -26 29 -27 58 -1 6 -4 12 -8 15 -6 5 -99 241 -137
350 l-16 45 -139 0 c-128 0 -140 -2 -151 -20z m160 -363 c-2 -7 -1 -11 4 -7
13 7 43 -88 35 -111 -4 -14 -3 -15 4 -6 7 11 10 10 16 -3 9 -24 7 -37 -3 -30
-5 3 -13 0 -17 -6 -4 -8 -3 -9 4 -5 7 4 12 2 12 -4 0 -6 4 -9 9 -6 4 3 19 -25
33 -62 l25 -67 -135 -3 c-74 -1 -136 -1 -138 1 -2 2 26 92 64 200 l67 196 13
-37 c7 -20 10 -42 7 -50z"/>
<path d="M5125 6069 c-2 -3 -3 -263 -2 -577 l2 -571 21 5 c12 3 24 2 27 -3 4
-6 35 -6 76 -1 40 5 88 4 111 -1 l40 -9 0 184 0 184 143 2 c78 1 158 2 179 3
20 0 35 2 33 6 -2 3 16 11 40 18 58 17 141 76 180 127 17 23 42 73 55 113 20
63 22 83 16 159 -4 48 -8 97 -9 109 -1 12 -4 19 -6 17 -2 -2 -19 22 -36 54
-57 104 -171 168 -314 178 -106 8 -552 10 -556 3z m525 -240 c48 -11 94 -45
83 -62 -3 -6 -1 -7 5 -3 16 9 22 -6 27 -66 5 -56 -10 -112 -28 -101 -6 3 -7 1
-3 -6 4 -6 2 -18 -4 -26 -15 -18 -34 -20 -24 -3 4 7 3 8 -5 4 -6 -4 -9 -11 -6
-16 10 -17 -70 -30 -182 -30 l-113 0 0 160 0 160 103 0 c56 0 122 -5 147 -11z"/>
<path d="M6164 6057 c-3 -10 -3 -21 0 -24 3 -4 6 1 6 10 0 10 4 17 9 17 11 0
11 -218 0 -247 -5 -14 -5 -23 1 -23 13 0 10 -82 -4 -99 -8 -12 -8 -13 2 -7 7
4 12 1 12 -8 0 -10 -6 -13 -17 -10 -16 5 -16 4 0 -6 14 -9 15 -15 7 -25 -8 -9
-8 -15 -1 -20 6 -3 10 -21 8 -40 -1 -18 -5 -31 -9 -28 -5 2 -8 -3 -8 -12 0 -9
5 -13 10 -10 12 8 12 8 1 -33 -7 -22 -6 -30 1 -26 12 8 8 -45 -5 -63 -6 -8 -6
-18 0 -25 15 -19 12 -48 -4 -48 -8 0 -11 -5 -8 -10 4 -6 11 -8 16 -5 5 4 9 1
9 -4 0 -6 -6 -11 -12 -11 -10 0 -10 -2 -2 -8 14 -8 13 -60 0 -81 -6 -10 -5
-12 2 -7 8 5 12 -4 12 -28 0 -20 -4 -36 -10 -36 -5 0 -10 -5 -10 -11 0 -5 4
-8 8 -5 4 2 8 -10 8 -29 0 -21 -4 -31 -10 -27 -6 3 -5 -1 2 -10 16 -20 13 -96
-5 -102 -20 -8 -16 -23 8 -29 12 -3 18 -10 15 -16 -4 -5 -2 -12 3 -15 12 -8
42 4 36 14 -7 12 126 18 330 14 105 -2 224 -3 265 -3 41 1 96 1 123 1 l47 0 0
98 c0 69 4 100 13 103 10 4 10 6 0 6 -7 1 -13 7 -13 14 0 10 -31 14 -132 15
-73 1 -137 3 -143 3 -25 1 -86 -1 -170 -6 -97 -6 -95 -9 -95 106 0 83 3 99 16
99 8 0 12 5 9 10 -4 6 12 10 40 10 28 0 44 -4 40 -10 -3 -5 1 -10 10 -10 9 0
14 4 11 9 -3 5 43 9 105 10 74 1 109 -2 104 -9 -4 -6 3 -10 17 -10 18 0 20 2
8 10 -11 7 1 10 42 10 36 0 58 -5 61 -12 3 -8 6 -6 6 5 1 9 9 17 19 17 11 0
13 3 5 8 -19 12 -21 191 -2 203 17 11 38 10 -258 9 l-233 -1 0 116 0 115 48 2
c26 1 146 2 267 3 l220 2 0 112 0 113 -413 1 c-391 2 -413 1 -418 -16z"/>
<path d="M7180 5499 l0 -575 116 3 c73 2 121 0 129 -7 19 -16 25 54 21 233
l-3 147 87 0 86 0 27 -41 c15 -22 24 -46 20 -52 -3 -7 -3 -9 2 -5 4 4 34 -33
67 -83 60 -93 66 -105 46 -93 -7 5 -8 3 -4 -5 5 -7 11 -10 14 -7 7 7 52 -59
52 -76 0 -11 19 -17 63 -17 6 0 63 2 125 4 71 3 112 1 112 -5 0 -5 4 -10 9
-10 5 0 9 13 9 30 -1 16 -4 27 -9 25 -4 -3 -17 8 -29 25 -12 16 -18 30 -14 30
4 0 1 6 -8 13 -16 12 -118 153 -118 163 0 3 5 2 12 -2 7 -4 8 -3 4 5 -4 6 -11
9 -15 7 -11 -7 -53 52 -46 64 4 6 2 9 -4 8 -6 -2 -20 11 -32 29 l-20 32 41 21
c22 11 46 18 52 14 6 -4 8 -3 5 2 -3 5 12 26 32 47 65 65 95 136 99 241 3 75
0 101 -18 151 -12 33 -22 71 -22 85 0 14 -3 19 -5 12 -3 -8 -19 3 -43 31 -21
23 -60 55 -86 69 -95 51 -149 58 -464 61 l-290 2 0 -576z m576 325 c22 -11 38
-25 37 -32 -2 -6 0 -11 5 -9 4 1 8 -2 9 -6 1 -5 9 -14 18 -21 22 -16 23 -101
3 -141 -9 -16 -31 -41 -50 -55 -31 -23 -42 -25 -183 -28 l-151 -4 -2 162 -2
163 139 -5 c109 -4 147 -9 177 -24z"/>
<path d="M8393 6072 c-72 -3 -73 -3 -73 -30 0 -15 -1 -272 -1 -572 l-2 -545
78 3 c62 3 76 1 69 -10 -6 -10 -4 -10 7 -2 18 13 57 16 64 4 3 -5 15 -6 27 -1
20 7 21 13 19 184 l-2 177 138 2 c76 1 158 2 181 1 28 0 39 3 30 8 -12 8 9 13
49 12 7 -1 10 3 7 8 -3 5 1 9 8 9 26 0 119 72 153 118 68 91 93 239 61 357
-16 63 -30 89 -72 141 -18 23 -30 45 -26 49 4 5 1 5 -6 1 -7 -4 -24 2 -38 13
-36 28 -125 60 -187 66 -62 7 -382 11 -484 7z m407 -241 c0 -5 8 -7 19 -4 40
10 123 -59 105 -88 -4 -7 -3 -9 4 -5 17 10 26 -58 13 -96 -31 -87 -64 -106
-202 -112 -83 -5 -108 -3 -127 10 -14 9 -22 11 -18 6 3 -6 2 -13 -4 -17 -7 -4
-10 48 -10 154 l0 161 110 0 c61 0 110 -4 110 -9z"/>
<path d="M3865 4433 l0 -153 28 0 27 0 0 143 0 143 -27 10 -28 10 0 -153z"/>
<path d="M5170 4573 c-42 -13 -60 -29 -70 -59 -17 -51 7 -85 83 -115 48 -19
67 -43 50 -60 -17 -17 -70 -14 -98 5 -22 15 -25 15 -34 -2 -18 -35 23 -62 94
-62 38 0 52 5 76 29 16 17 29 40 29 54 0 38 -36 76 -85 88 -25 6 -50 17 -56
25 -26 31 36 58 79 35 12 -6 24 -4 37 5 20 15 20 15 -5 34 -14 11 -33 20 -42
20 -9 0 -22 2 -30 4 -7 3 -20 2 -28 -1z"/>
<path d="M6335 4569 c-17 -5 -43 -22 -59 -38 -23 -24 -29 -41 -33 -93 -4 -55
-2 -68 19 -98 30 -44 61 -60 121 -60 40 0 53 5 85 34 37 34 37 35 37 111 0 76
0 77 -37 111 -21 19 -46 34 -57 34 -11 0 -25 2 -33 4 -7 2 -27 0 -43 -5z m92
-71 c45 -50 36 -136 -17 -163 -62 -32 -132 37 -115 114 15 68 90 95 132 49z"/>
<path d="M8308 4570 c-89 -16 -134 -119 -94 -215 41 -98 207 -99 247 -2 16 38
12 122 -6 158 -24 46 -84 70 -147 59z m67 -56 c8 -4 22 -19 30 -35 30 -56 13
-116 -40 -145 -31 -16 -35 -17 -59 -1 -101 66 -41 223 69 181z"/>
<path d="M4000 4555 c-1 -8 -1 -67 -1 -130 0 -63 0 -122 1 -130 0 -9 10 -15
26 -15 l25 0 -1 88 c-2 116 -2 115 22 52 21 -56 44 -90 60 -90 5 0 24 33 43
73 l34 72 0 -97 c1 -98 1 -98 26 -98 l25 0 0 145 0 145 -30 0 c-31 0 -42 -17
-90 -138 l-13 -34 -12 34 c-7 18 -23 57 -36 86 -20 45 -27 52 -51 52 -18 0
-28 -5 -28 -15z"/>
<path d="M4334 4425 l1 -145 28 0 c26 0 27 2 27 50 0 48 1 50 29 50 41 0 90
19 101 40 11 21 13 80 4 105 -11 28 -60 45 -127 45 l-65 0 2 -145z"/>
<path d="M4590 4456 c0 -106 2 -117 23 -142 18 -20 35 -28 74 -31 97 -10 123
31 123 188 l0 99 -30 0 -30 0 0 -110 c0 -106 -1 -110 -25 -126 -23 -15 -27
-15 -50 0 -32 21 -37 45 -33 150 l3 86 -27 0 -28 0 0 -114z"/>
<path d="M4880 4425 l0 -145 91 0 90 0 -3 27 c-3 25 -6 26 -63 27 l-60 1 0
118 0 117 -27 0 -28 0 0 -145z"/>
<path d="M5386 4438 c-26 -73 -49 -139 -51 -145 -3 -8 5 -13 20 -13 19 0 30 9
42 35 16 33 20 35 65 35 45 0 49 -2 65 -35 13 -28 23 -35 45 -35 15 0 28 2 28
5 0 2 -13 37 -28 77 -16 40 -39 103 -52 141 -22 63 -25 67 -55 67 -30 0 -31
-1 -79 -132z"/>
<path d="M5650 4425 l0 -145 26 0 27 0 -5 96 c-3 52 -1 91 3 87 5 -5 35 -47
66 -93 37 -55 66 -86 79 -88 19 -3 21 3 27 80 4 46 7 111 7 146 0 59 -1 62
-24 62 -14 0 -27 -4 -30 -8 -3 -5 -1 -49 4 -97 5 -49 8 -91 6 -92 -2 -2 -33
42 -70 97 -54 82 -71 100 -91 100 l-25 0 0 -145z"/>
<path d="M5951 4425 l0 -145 62 0 c119 1 177 49 177 147 0 97 -56 143 -174
143 l-65 0 0 -145z m156 71 c23 -20 28 -32 28 -71 0 -39 -5 -51 -28 -70 -24
-21 -93 -44 -100 -34 -2 2 -1 48 1 102 l4 97 33 0 c21 0 44 -9 62 -24z"/>
<path d="M6670 4545 c0 -22 4 -25 40 -25 l40 0 0 -120 0 -120 30 0 30 0 0 120
0 120 40 0 c36 0 40 3 40 25 l0 25 -110 0 -110 0 0 -25z"/>
<path d="M6942 4449 c3 -118 4 -121 31 -145 43 -37 118 -34 158 5 29 29 29 31
29 146 l0 116 -26 -3 -27 -3 2 -93 c3 -105 -11 -142 -54 -142 -46 0 -55 22
-55 136 l0 104 -31 0 -31 0 4 -121z"/>
<path d="M7350 4425 l0 -145 31 0 31 0 -4 100 c-3 55 -1 100 4 100 4 0 8 -5 8
-11 0 -6 26 -51 58 -100 44 -68 62 -89 80 -89 22 0 22 1 22 145 l0 145 -26 0
-25 0 3 -95 c2 -52 0 -95 -4 -95 -5 0 -8 5 -8 10 0 6 -25 48 -57 95 -48 74
-60 85 -85 85 l-28 0 0 -145z"/>
<path d="M7660 4425 l0 -145 94 0 c96 0 111 5 100 34 -5 13 -21 16 -75 16
l-69 0 0 34 c0 40 9 45 73 38 45 -5 47 -4 47 22 0 25 -2 26 -58 26 l-58 0 1
33 0 32 68 3 c64 3 67 4 67 27 0 25 -1 25 -95 25 l-95 0 0 -145z"/>
<path d="M7955 4548 c-55 -43 -72 -144 -35 -205 28 -46 72 -66 136 -61 74 6
84 18 84 94 l0 64 -56 0 c-47 0 -55 -3 -50 -16 3 -9 6 -20 6 -25 0 -5 11 -9
25 -9 34 0 35 -42 3 -56 -51 -21 -101 13 -113 76 -5 27 -1 43 17 70 20 29 31
36 64 38 28 2 45 -2 54 -13 12 -14 15 -14 31 1 26 23 24 31 -11 49 -44 23
-121 20 -155 -7z"/>
<path d="M8576 4548 c-77 -58 -73 -200 8 -249 38 -23 106 -25 146 -4 32 17 35
22 20 45 -8 12 -14 12 -45 1 -44 -16 -90 -6 -110 22 -24 34 -20 109 8 135 28
26 88 29 112 6 12 -13 19 -14 30 -4 63 52 -101 98 -169 48z"/>
<path d="M9010 4557 c-42 -21 -70 -74 -70 -131 0 -92 54 -146 145 -146 37 0
52 6 82 33 32 30 37 41 41 90 5 67 -9 107 -50 142 -33 28 -105 34 -148 12z
m110 -47 c23 -12 44 -83 35 -117 -21 -86 -140 -83 -160 5 -6 31 7 77 32 104
18 20 64 24 93 8z"/>
</g>
</svg>
